<svg xmlns="http://www.w3.org/2000/svg" width="328.891" height="336.473" viewBox="0 0 328.891 336.473"><defs><style>.a{fill:#fff;}.b{fill:#211715;}.c{fill:#f2635f;}.d{fill:#3d8dcc;}</style></defs><path class="a" d="M111.935,209.751H29.978a2.875,2.875,0,0,0-2.869,2.875V313.953c20.575-.006,70.7-.006,86.441-.006a2.859,2.859,0,0,0,2.861-2.867c0-11.518,0-55.573,0-98.461a2.868,2.868,0,0,0-2.869-2.868Z"/><path class="b" d="M57.249,316.347H112.2c1.823,0,3.559-.113,4.954-1.437a5.564,5.564,0,0,0,1.655-4.1c.052-3.425,0-6.854,0-10.279q0-18.266,0-36.531V216.262c0-1.892.309-4.056-.5-5.822a5.236,5.236,0,0,0-3.8-2.984,8.126,8.126,0,0,0-1.5-.1H42.2c-3.957,0-7.917-.036-11.874,0a5.96,5.96,0,0,0-2.961.7c-3.6,2.057-2.658,6.875-2.658,10.35v32.726c0,3.089,4.8,3.094,4.8,0V213.612c0-.669-.209-1.279.478-1.461a10.9,10.9,0,0,1,2.5,0h78.17a13.074,13.074,0,0,1,2.852,0c.261.065.433.09.54.418a7.539,7.539,0,0,1-.036,1.507v38.605q0,19.68,0,39.359,0,6.645,0,13.289,0,2.31,0,4.62c0,.41.129,1.164-.124,1.459-.216.252-.42.114-.72.139-.895.073-1.829,0-2.728,0H57.249c-3.088,0-3.093,4.8,0,4.8Z"/><path class="b" d="M62.4,255.811H97.246c3.088,0,3.093-4.8,0-4.8H62.4c-3.088,0-3.093,4.8,0,4.8Z"/><path class="b" d="M62.4,272.8H97.246c3.088,0,3.093-4.8,0-4.8H62.4c-3.088,0-3.093,4.8,0,4.8Z"/><path class="b" d="M62.4,289.781H97.246c3.088,0,3.093-4.8,0-4.8H62.4c-3.088,0-3.093,4.8,0,4.8Z"/><path class="c" d="M26.366,333.589,2.742,305.435a1.4,1.4,0,0,1,1.082-2.3H16.272a1.412,1.412,0,0,0,1.411-1.412V263.261a1.412,1.412,0,0,1,1.412-1.412H36.12a1.412,1.412,0,0,1,1.411,1.412v38.458a1.412,1.412,0,0,0,1.412,1.412H51.062a1.405,1.405,0,0,1,1.077,2.309L28.523,333.585A1.406,1.406,0,0,1,26.366,333.589Z"/><path class="b" d="M28.063,331.892l-19.218-22.9c-1.328-1.583-2.664-3.16-3.985-4.748l-.142-.169c-.165-.194-.185-.22-.062-.079.5-.254-.173,2.383-.824,1.539.014.018.138-.006.158,0a6.276,6.276,0,0,0,1.469,0h9.959c1.978,0,4.009-.658,4.542-2.85a7.716,7.716,0,0,0,.123-1.858v-36.16a4.954,4.954,0,0,0,0-1.376c.237.665-1.545.8-.792.962a5.985,5.985,0,0,0,1.182,0H35.015a4.24,4.24,0,0,0,.988,0c.58-.158-.714-1.427-.872-.912a6.221,6.221,0,0,0,0,1.59v33.588c0,1.654-.31,3.851.638,5.3,1.06,1.619,2.781,1.718,4.5,1.718h9.91c.108,0,.8.083.868,0,.007-.01-.692-.292-.706-.306l-.235-.4q.393-1.234.013-.692c-.2.027-.816.972-.958,1.14l-1.276,1.521q-7.257,8.65-14.516,17.3l-3.509,4.182L28.1,330.367a6.832,6.832,0,0,0-.957,1.141l-.319.38a1.06,1.06,0,0,1,1.237,0c-2.237-2.13-5.637,1.259-3.394,3.394a3.879,3.879,0,0,0,4.834.592,9.9,9.9,0,0,0,1.993-2.117L33.73,331.1l7.656-9.125,7.657-9.125,3.51-4.182c1.264-1.508,2.764-2.962,2.178-5.119-.592-2.18-2.56-2.818-4.555-2.818H39.958a3.1,3.1,0,0,0-1.008,0c-.212.108.8,1.389.981.954.02-.049-.01-.124,0-.176a12.109,12.109,0,0,0,0-2.171V264.819c0-.511.023-1.028,0-1.539a3.94,3.94,0,0,0-4.1-3.831c-3.1-.088-6.226,0-9.333,0-2.546,0-5.186-.2-7.723.037a3.9,3.9,0,0,0-3.488,4.075c-.018.736,0,1.475,0,2.211v34.6a4.552,4.552,0,0,0,0,1.344c.047.115,1.413-.809.931-.98a2.127,2.127,0,0,0-.437,0c-.647-.066-1.336,0-1.987,0H7.973c-1.324,0-2.659-.051-3.983,0-2.835.108-5.025,2.979-3.478,5.683a17.082,17.082,0,0,0,1.866,2.306l2.293,2.733,5.047,6.015L20.435,330.24l4.234,5.046a2.419,2.419,0,0,0,3.394,0A2.451,2.451,0,0,0,28.063,331.892Z"/><path class="a" d="M302.25,210.228H239.972A2.875,2.875,0,0,0,237.1,213.1V314.431H323.55a2.859,2.859,0,0,0,2.861-2.867c0-11.518,0-55.576,0-98.468a2.867,2.867,0,0,0-2.869-2.867Z"/><path class="b" d="M258.921,316.83h62.635a9.265,9.265,0,0,0,4.466-.618c2.608-1.369,2.789-3.993,2.789-6.575q0-15.3,0-30.609,0-23.754,0-47.509V218.683c0-3.7.92-8.81-3.377-10.482a11.34,11.34,0,0,0-4.125-.373H240.573a9.77,9.77,0,0,0-1.254.062,5.224,5.224,0,0,0-4.121,3.034c-.856,1.884-.5,4.279-.5,6.3v34.38c0,3.088,4.8,3.093,4.8,0V215.065c0-.559-.228-1.692.042-2.152.131-.222.27-.237.483-.285a15.287,15.287,0,0,1,3.136,0h79.571a3.582,3.582,0,0,1,.795,0c.671.169.478.782.478,1.439V268.32q0,17.546,0,35.089,0,2.729,0,5.456v2.083c0,.645.064,1-.6,1.082a30.43,30.43,0,0,1-3.808,0H258.921c-3.088,0-3.093,4.8,0,4.8Z"/><path class="b" d="M272.4,256.29h34.843c3.089,0,3.094-4.8,0-4.8H272.4c-3.089,0-3.094,4.8,0,4.8Z"/><path class="b" d="M272.4,273.276h34.843c3.089,0,3.094-4.8,0-4.8H272.4c-3.089,0-3.094,4.8,0,4.8Z"/><path class="b" d="M272.4,290.262h34.843c3.089,0,3.094-4.8,0-4.8H272.4c-3.089,0-3.094,4.8,0,4.8Z"/><path class="d" d="M236.038,262.826l-23.3,27.767a1.392,1.392,0,0,0,1.07,2.285h12.272a1.393,1.393,0,0,1,1.393,1.393v37.95a1.393,1.393,0,0,0,1.393,1.393h16.8a1.392,1.392,0,0,0,1.393-1.393v-37.95a1.393,1.393,0,0,1,1.393-1.393H260.4a1.393,1.393,0,0,0,1.067-2.288l-23.295-27.763A1.393,1.393,0,0,0,236.038,262.826Z"/><path class="b" d="M234.341,261.129l-19.88,23.692-1.935,2.307a16.967,16.967,0,0,0-2.032,2.511c-1.491,2.74.671,5.556,3.544,5.639,3.274.095,6.563,0,9.838,0h1.7c1.318,0-.892.018-.506-.993a4.689,4.689,0,0,0,0,1.354v30.274c0,2.006-.057,4.022,0,6.028a3.883,3.883,0,0,0,3.473,4.036c.84.08,1.694.037,2.537.037H242.1c1.11,0,2.226.036,3.335,0a3.922,3.922,0,0,0,4.024-3.827c.091-1.652,0-3.334,0-4.987V296.551a11.519,11.519,0,0,0,0-2.068c-.01-.052.02-.128,0-.177-.179-.446-1.227.885-1,.972a3.493,3.493,0,0,0,1.021,0h10.168c2.01,0,3.956-.8,4.447-2.962.473-2.085-.981-3.483-2.208-4.945l-3.829-4.563-15.317-18.255c-1.084-1.292-2.166-3.1-3.587-4.016a3.865,3.865,0,0,0-4.813.592c-2.242,2.134,1.156,5.525,3.394,3.394l-.63.206q-1.08-.535-.311.176a6.824,6.824,0,0,0,.957,1.141l1.595,1.9,3.83,4.564,7.34,8.747,7.02,8.367c.158.187,1.923,2.274,1.915,2.281.094-.083-.011-.775.075-.922,4.364-7.46,1.122-.334.847-.506-.206-.129-.929,0-1.153,0h-9.74c-1.923,0-3.895.429-4.593,2.542a6.121,6.121,0,0,0-.228,2v35.627a5.5,5.5,0,0,0,0,1.522c.162.457,1.478-.793.888-.953a4.336,4.336,0,0,0-1.012,0h-14.4a4.9,4.9,0,0,0-1.1,0c-.669.173.748,1.2.836.953a5.165,5.165,0,0,0,0-1.416V297.66c0-1.447.247-3.24-.227-4.64-1.184-3.49-6.355-2.542-9.2-2.542h-5.16a5.59,5.59,0,0,0-1.312,0c-.046.013-.12-.022-.161,0,.851-.451,1.351,1.528.762,1.651.076-.016.373-.444.424-.5l18.922-22.55,3.818-4.551a2.465,2.465,0,0,0,0-3.394A2.419,2.419,0,0,0,234.341,261.129Z"/><path class="a" d="M289.218,105.1h21.436a2.758,2.758,0,0,0,2.757-2.765c0-11.262,0-54.791,0-97.148a2.763,2.763,0,0,0-2.764-2.763H228.176a2.769,2.769,0,0,0-2.765,2.769v97.136a2.765,2.765,0,0,0,2.758,2.771h20.525"/><path class="b" d="M248.45,29.614h41.923c3.088,0,3.093-4.8,0-4.8H248.45c-3.089,0-3.094,4.8,0,4.8Z"/><path class="b" d="M248.45,48.454h41.923c3.088,0,3.093-4.8,0-4.8H248.45c-3.089,0-3.094,4.8,0,4.8Z"/><path class="b" d="M248.45,67.294h41.923c3.088,0,3.093-4.8,0-4.8H248.45c-3.089,0-3.094,4.8,0,4.8Z"/><path class="b" d="M289.218,107.5H307.9c2.117,0,4.291.242,6.03-1.2,2.059-1.7,1.883-4.16,1.883-6.558q0-2.949,0-5.9,0-19.552,0-39.1V9.064c0-2.064.378-4.51-.651-6.393C313.8.183,311.321.019,308.885.019H231.679c-1.155,0-2.319-.042-3.473,0a5.308,5.308,0,0,0-3.435,1.3c-1.7,1.528-1.76,3.468-1.76,5.605v94.436c0,2.126.483,4.078,2.37,5.309,1.74,1.136,3.975.825,5.95.825h17.363c3.088,0,3.093-4.8,0-4.8H228.87c-.461,0-.869.148-1.062-.3a8.285,8.285,0,0,1,0-2.466V6.43c0-.908-.231-1.535.65-1.611.509-.044,1.043,0,1.554,0h80.111c.246,0,.6-.062.772.109.331.325.11,1.277.11,1.709V41.982q0,21.3,0,42.592,0,6.89,0,13.777v2.312a5.843,5.843,0,0,1,.006,1.756c-.2.42-.638.276-1.064.276H289.218c-3.089,0-3.094,4.8,0,4.8Z"/><path class="b" d="M276.589,87.554v33.869c0,3.6,5.6,3.609,5.6,0V120.3c0-3.6-5.6-3.609-5.6,0v1.12c0,3.6,5.6,3.609,5.6,0V87.554c0-3.6-5.6-3.609-5.6,0Z"/><path class="b" d="M273.4,98.184,281.106,89h-3.96l7.708,9.185a2.812,2.812,0,0,0,3.96,0,2.876,2.876,0,0,0,0-3.96l-7.708-9.185a2.808,2.808,0,0,0-3.96,0l-7.707,9.185a2.8,2.8,0,1,0,3.96,3.96Z"/><path class="b" d="M262.234,120.887V87.019c0-3.6-5.6-3.61-5.6,0v1.119c0,3.6,5.6,3.61,5.6,0V87.019c0-3.6-5.6-3.61-5.6,0v33.868c0,3.6,5.6,3.61,5.6,0Z"/><path class="b" d="M250.009,114.218l7.708,9.185a2.807,2.807,0,0,0,3.959,0l7.708-9.185a2.862,2.862,0,0,0,0-3.96,2.833,2.833,0,0,0-3.96,0l-7.707,9.185h3.959l-7.707-9.185a2.811,2.811,0,0,0-3.96,0,2.875,2.875,0,0,0,0,3.96Z"/><path class="a" d="M14.411,12.248v99.344a2.828,2.828,0,0,0,2.821,2.834h84.359a2.82,2.82,0,0,0,2.82-2.828c0-11.518,0-56.036,0-99.356a2.826,2.826,0,0,0-2.827-2.826H17.239A2.832,2.832,0,0,0,14.411,12.248Z"/><path class="b" d="M12.011,12.248v96.945c0,2.274-.142,4.5,1.643,6.2,1.737,1.654,4.038,1.431,6.254,1.431H97.834c2.127,0,4.574.366,6.482-.768,2.649-1.575,2.5-4.471,2.5-7.129q0-3.251,0-6.5,0-22.151,0-44.3V14.668c0-2.273.139-4.53-1.646-6.225a5.452,5.452,0,0,0-3.616-1.427c-4.476-.177-9,0-13.473,0H31.606c-4.748,0-9.524-.151-14.27,0a5.36,5.36,0,0,0-5.325,5.232c-.178,3.086,4.623,3.076,4.8,0,.044-.752,2.254-.432,2.816-.432H99.9a14.178,14.178,0,0,1,1.515,0,.913.913,0,0,0,.2-.041c.483.16.4.528.395.952-.016,1.213,0,2.427,0,3.639v28.29q0,24.041,0,48.081,0,7.593,0,15.188c0,.869.428,3.805-.4,4.127a9.859,9.859,0,0,1-2.447-.026H20.58a27.394,27.394,0,0,1-3.126,0c-.418-.049-.511,0-.654-.424a6.14,6.14,0,0,1,.011-1.452v-97.9C16.811,9.16,12.011,9.155,12.011,12.248Z"/><path class="b" d="M38.043,37.283H80.78c3.088,0,3.093-4.8,0-4.8H38.043c-3.088,0-3.094,4.8,0,4.8Z"/><path class="b" d="M38.043,56.489H80.78c3.088,0,3.093-4.8,0-4.8H38.043c-3.088,0-3.094,4.8,0,4.8Z"/><path class="b" d="M38.043,75.695H80.78c3.088,0,3.093-4.8,0-4.8H38.043c-3.088,0-3.094,4.8,0,4.8Z"/></svg>